<svg xmlns="http://www.w3.org/2000/svg" xmlns:xlink="http://www.w3.org/1999/xlink" width="640" zoomAndPan="magnify" viewBox="0 0 480 127.500001" height="170" preserveAspectRatio="xMidYMid meet" version="1.0"><defs><g/><clipPath id="e5691c03e0"><path d="M 8 6 L 116 6 L 116 121 L 8 121 Z M 8 6 " clip-rule="nonzero"/></clipPath><clipPath id="2e708cab1a"><path d="M 24.144531 0.441406 L 121.65625 106.652344 L 100.191406 126.355469 L 2.679688 20.144531 Z M 24.144531 0.441406 " clip-rule="nonzero"/></clipPath><clipPath id="7db68c80ee"><path d="M 24.171875 0.472656 L 121.671875 106.671875 L 99.996094 126.566406 L 2.496094 20.367188 Z M 24.171875 0.472656 " clip-rule="nonzero"/></clipPath><clipPath id="510514415d"><path d="M 110.824219 116.585938 C 104.847656 122.078125 95.550781 121.679688 90.058594 115.699219 L 12.457031 31.175781 C 6.96875 25.195312 7.367188 15.898438 13.34375 10.410156 C 19.324219 4.921875 28.621094 5.316406 34.109375 11.296875 L 111.710938 95.824219 C 117.199219 101.800781 116.804688 111.097656 110.824219 116.585938 Z M 110.824219 116.585938 " clip-rule="nonzero"/></clipPath><clipPath id="be6d33ab58"><path d="M 10.480469 27.242188 L 17.71875 27.242188 L 17.71875 105.21875 L 10.480469 105.21875 Z M 10.480469 27.242188 " clip-rule="nonzero"/></clipPath><clipPath id="18f2aca213"><path d="M 84.957031 44.128906 L 93.058594 44.128906 L 93.058594 75.476562 L 84.957031 75.476562 Z M 84.957031 44.128906 " clip-rule="nonzero"/></clipPath><clipPath id="8471c99dc5"><path d="M 105.15625 19.339844 L 113.375 19.339844 L 113.375 98.125 L 105.15625 98.125 Z M 105.15625 19.339844 " clip-rule="nonzero"/></clipPath><clipPath id="217c058900"><path d="M 22.714844 77.390625 L 45.875 77.390625 L 45.875 100.542969 L 22.714844 100.542969 Z M 22.714844 77.390625 " clip-rule="nonzero"/></clipPath><clipPath id="6ee01ae5da"><path d="M 34.320312 100.5 L 34.304688 100.5 C 27.925781 100.5 22.75 95.328125 22.75 88.945312 C 22.75 82.5625 27.925781 77.390625 34.304688 77.390625 L 34.320312 77.390625 C 40.703125 77.390625 45.875 82.5625 45.875 88.945312 C 45.875 95.328125 40.703125 100.5 34.320312 100.5 Z M 34.320312 100.5 " clip-rule="nonzero"/></clipPath><clipPath id="0402fcc09c"><path d="M 97.035156 0.445312 L 120.941406 0.445312 L 120.941406 24.34375 L 97.035156 24.34375 Z M 97.035156 0.445312 " clip-rule="nonzero"/></clipPath><clipPath id="a4ab2c34d8"><path d="M 109.113281 24.101562 L 109.097656 24.101562 C 102.566406 24.101562 97.269531 18.808594 97.269531 12.273438 C 97.269531 5.742188 102.566406 0.445312 109.097656 0.445312 L 109.113281 0.445312 C 115.644531 0.445312 120.941406 5.742188 120.941406 12.273438 C 120.941406 18.808594 115.644531 24.101562 109.113281 24.101562 Z M 109.113281 24.101562 " clip-rule="nonzero"/></clipPath><clipPath id="899ca2ed49"><rect x="0" width="211" y="0" height="73"/></clipPath><clipPath id="a3dea2afd7"><path d="M 336 27 L 479.0625 27 L 479.0625 99 L 336 99 Z M 336 27 " clip-rule="nonzero"/></clipPath><clipPath id="afd56778bc"><rect x="0" width="144" y="0" height="72"/></clipPath><clipPath id="959912dbd3"><path d="M 77 25.109375 L 100.84375 25.109375 L 100.84375 49 L 77 49 Z M 77 25.109375 " clip-rule="nonzero"/></clipPath><clipPath id="f085743c06"><path d="M 89.015625 48.765625 L 89 48.765625 C 82.46875 48.765625 77.171875 43.46875 77.171875 36.9375 C 77.171875 30.40625 82.46875 25.109375 89 25.109375 L 89.015625 25.109375 C 95.550781 25.109375 100.84375 30.40625 100.84375 36.9375 C 100.84375 43.46875 95.550781 48.765625 89.015625 48.765625 Z M 89.015625 48.765625 " clip-rule="nonzero"/></clipPath><clipPath id="1ab87e16cb"><path d="M 30.691406 48.792969 L 37.929688 48.792969 L 37.929688 82.203125 L 30.691406 82.203125 Z M 30.691406 48.792969 " clip-rule="nonzero"/></clipPath><clipPath id="60a7314efe"><path d="M 2.183594 102.320312 L 26.089844 102.320312 L 26.089844 126.21875 L 2.183594 126.21875 Z M 2.183594 102.320312 " clip-rule="nonzero"/></clipPath><clipPath id="7f36e195d5"><path d="M 14.109375 126.277344 L 14.09375 126.277344 C 7.476562 126.277344 2.113281 120.914062 2.113281 114.300781 C 2.113281 107.683594 7.476562 102.320312 14.09375 102.320312 L 14.109375 102.320312 C 20.726562 102.320312 26.089844 107.683594 26.089844 114.300781 C 26.089844 120.914062 20.726562 126.277344 14.109375 126.277344 Z M 14.109375 126.277344 " clip-rule="nonzero"/></clipPath></defs><g clip-path="url(#e5691c03e0)"><g clip-path="url(#2e708cab1a)"><g clip-path="url(#7db68c80ee)"><g clip-path="url(#510514415d)"><path stroke-linecap="butt" transform="matrix(0.505237, 0.550318, -0.550318, 0.505237, 24.143706, 0.441138)" fill="none" stroke-linejoin="miter" d="M 192.990582 19.671355 C 192.995717 30.536277 184.186775 39.342593 173.318002 39.344192 L 19.725849 39.346204 C 8.860612 39.343951 0.0542949 30.535009 0.0530116 19.673623 C 0.0552645 8.808386 8.860355 -0.00146662 19.725593 0.000786259 L 173.321597 0.00231037 C 184.182983 0.00102708 192.992835 8.806118 192.990582 19.671355 Z M 192.990582 19.671355 " stroke="#10b981" stroke-width="18" stroke-opacity="1" stroke-miterlimit="4"/></g></g></g></g><g clip-path="url(#be6d33ab58)"><path stroke-linecap="butt" transform="matrix(0, 0.74707, -0.74707, 0, 17.717113, 27.19601)" fill="none" stroke-linejoin="miter" d="M 0.0618116 -0.00219157 L 104.438279 -0.00219157 L 104.438279 9.686697 L 0.0618116 9.686697 Z M 0.0618116 -0.00219157 " stroke="#10b981" stroke-width="16" stroke-opacity="1" stroke-miterlimit="4"/></g><g clip-path="url(#18f2aca213)"><path stroke-linecap="butt" transform="matrix(0, 0.74707, -0.74707, 0, 93.0594, 44.100549)" fill="none" stroke-linejoin="miter" d="M 0.037958 0.001079 L 42.302012 0.001079 L 42.302012 10.845524 L 0.037958 10.845524 Z M 0.037958 0.001079 " stroke="#10b981" stroke-width="16" stroke-opacity="1" stroke-miterlimit="4"/></g><g clip-path="url(#8471c99dc5)"><path stroke-linecap="butt" transform="matrix(0, 0.74707, -0.74707, 0, 113.373628, 19.313835)" fill="none" stroke-linejoin="miter" d="M 0.0348146 -0.00183716 L 105.493635 -0.00183716 L 105.493635 11.438685 L 0.0348146 11.438685 Z M 0.0348146 -0.00183716 " stroke="#10b981" stroke-width="16" stroke-opacity="1" stroke-miterlimit="4"/></g><g clip-path="url(#217c058900)"><g clip-path="url(#6ee01ae5da)"><path stroke-linecap="butt" transform="matrix(0, 0.74707, -0.74707, 0, 45.875019, 77.383121)" fill="none" stroke-linejoin="miter" d="M 30.943377 15.466692 L 30.943377 15.487607 C 30.943377 24.026169 24.020502 30.954273 15.476711 30.954273 C 6.932921 30.954273 0.0100449 24.026169 0.0100449 15.487607 L 0.0100449 15.466692 C 0.0100449 6.922901 6.932921 0.0000254687 15.476711 0.0000254687 C 24.020502 0.0000254687 30.943377 6.922901 30.943377 15.466692 Z M 30.943377 15.466692 " stroke="#10b981" stroke-width="14" stroke-opacity="1" stroke-miterlimit="4"/></g></g><g clip-path="url(#0402fcc09c)"><g clip-path="url(#a4ab2c34d8)"><path stroke-linecap="butt" transform="matrix(0, 0.74707, -0.74707, 0, 120.941579, 0.43792)" fill="none" stroke-linejoin="miter" d="M 31.675256 15.832911 L 31.675256 15.853826 C 31.675256 24.59631 24.590289 31.686506 15.842576 31.686506 C 7.100092 31.686506 0.00989556 24.59631 0.00989556 15.853826 L 0.00989556 15.832911 C 0.00989556 7.090427 7.100092 0.000230718 15.842576 0.000230718 C 24.590289 0.000230718 31.675256 7.090427 31.675256 15.832911 Z M 31.675256 15.832911 " stroke="#10b981" stroke-width="14" stroke-opacity="1" stroke-miterlimit="4"/></g></g><g transform="matrix(1, 0, 0, 1, 126, 27)"><g clip-path="url(#899ca2ed49)"><g fill="#10b981" fill-opacity="1"><g transform="translate(1.42926, 56.486975)"><g><path d="M 42.171875 -41.234375 L 42.171875 0 L 35.875 0 L 13.140625 -27.921875 L 13.140625 0 L 5.53125 0 L 5.53125 -41.234375 L 11.84375 -41.234375 L 34.578125 -13.3125 L 34.578125 -41.234375 Z M 42.171875 -41.234375 "/></g></g></g><g fill="#10b981" fill-opacity="1"><g transform="translate(48.554141, 56.486975)"><g><path d="M 36.46875 -6.421875 L 36.46875 0 L 5.53125 0 L 5.53125 -41.234375 L 35.640625 -41.234375 L 35.640625 -34.8125 L 13.1875 -34.8125 L 13.1875 -24.09375 L 33.109375 -24.09375 L 33.109375 -17.796875 L 13.1875 -17.796875 L 13.1875 -6.421875 Z M 36.46875 -6.421875 "/></g></g></g><g fill="#10b981" fill-opacity="1"><g transform="translate(86.960908, 56.486975)"><g><path d="M 31.515625 0 L 20.328125 -15.671875 L 9.25 0 L 0.53125 0 L 15.84375 -21.03125 L 1.359375 -41.234375 L 10.015625 -41.234375 L 20.5625 -26.5625 L 30.984375 -41.234375 L 39.296875 -41.234375 L 24.859375 -21.328125 L 40.34375 0 Z M 31.515625 0 "/></g></g></g><g fill="#10b981" fill-opacity="1"><g transform="translate(126.604716, 56.486975)"><g><path d="M 23.265625 0.59375 C 17.578125 0.59375 13.140625 -1.003906 9.953125 -4.203125 C 6.773438 -7.410156 5.1875 -12 5.1875 -17.96875 L 5.1875 -41.234375 L 12.84375 -41.234375 L 12.84375 -18.265625 C 12.84375 -10.171875 16.335938 -6.125 23.328125 -6.125 C 30.273438 -6.125 33.75 -10.171875 33.75 -18.265625 L 33.75 -41.234375 L 41.296875 -41.234375 L 41.296875 -17.96875 C 41.296875 -12 39.710938 -7.410156 36.546875 -4.203125 C 33.390625 -1.003906 28.960938 0.59375 23.265625 0.59375 Z M 23.265625 0.59375 "/></g></g></g><g fill="#10b981" fill-opacity="1"><g transform="translate(172.492558, 56.486975)"><g><path d="M 18.3125 0.59375 C 15.132812 0.59375 12.0625 0.140625 9.09375 -0.765625 C 6.132812 -1.671875 3.789062 -2.867188 2.0625 -4.359375 L 4.71875 -10.3125 C 6.40625 -8.976562 8.472656 -7.882812 10.921875 -7.03125 C 13.378906 -6.1875 15.84375 -5.765625 18.3125 -5.765625 C 21.382812 -5.765625 23.675781 -6.253906 25.1875 -7.234375 C 26.695312 -8.222656 27.453125 -9.523438 27.453125 -11.140625 C 27.453125 -12.316406 27.03125 -13.285156 26.1875 -14.046875 C 25.34375 -14.816406 24.269531 -15.414062 22.96875 -15.84375 C 21.675781 -16.28125 19.910156 -16.769531 17.671875 -17.3125 C 14.523438 -18.0625 11.976562 -18.804688 10.03125 -19.546875 C 8.09375 -20.296875 6.425781 -21.46875 5.03125 -23.0625 C 3.644531 -24.65625 2.953125 -26.804688 2.953125 -29.515625 C 2.953125 -31.785156 3.566406 -33.851562 4.796875 -35.71875 C 6.035156 -37.59375 7.898438 -39.078125 10.390625 -40.171875 C 12.890625 -41.273438 15.945312 -41.828125 19.5625 -41.828125 C 22.070312 -41.828125 24.539062 -41.507812 26.96875 -40.875 C 29.40625 -40.25 31.507812 -39.347656 33.28125 -38.171875 L 30.859375 -32.21875 C 29.054688 -33.28125 27.171875 -34.085938 25.203125 -34.640625 C 23.242188 -35.191406 21.34375 -35.46875 19.5 -35.46875 C 16.476562 -35.46875 14.226562 -34.957031 12.75 -33.9375 C 11.28125 -32.914062 10.546875 -31.554688 10.546875 -29.859375 C 10.546875 -28.679688 10.96875 -27.71875 11.8125 -26.96875 C 12.65625 -26.226562 13.722656 -25.640625 15.015625 -25.203125 C 16.316406 -24.773438 18.085938 -24.285156 20.328125 -23.734375 C 23.390625 -23.023438 25.898438 -22.285156 27.859375 -21.515625 C 29.828125 -20.753906 31.503906 -19.585938 32.890625 -18.015625 C 34.285156 -16.453125 34.984375 -14.332031 34.984375 -11.65625 C 34.984375 -9.382812 34.363281 -7.320312 33.125 -5.46875 C 31.894531 -3.625 30.019531 -2.148438 27.5 -1.046875 C 24.988281 0.046875 21.925781 0.59375 18.3125 0.59375 Z M 18.3125 0.59375 "/></g></g></g></g></g><g clip-path="url(#a3dea2afd7)"><g transform="matrix(1, 0, 0, 1, 336, 27)"><g clip-path="url(#afd56778bc)"><g fill="#ffffff" fill-opacity="1"><g transform="translate(1.615209, 56.50555)"><g><path d="M 31.515625 -9.3125 L 11.390625 -9.3125 L 7.421875 0 L -0.28125 0 L 17.828125 -40.265625 L 25.1875 -40.265625 L 43.359375 0 L 35.546875 0 Z M 29.046875 -15.1875 L 21.453125 -32.78125 L 13.921875 -15.1875 Z M 29.046875 -15.1875 "/></g></g></g><g fill="#ffffff" fill-opacity="1"><g transform="translate(47.5682, 56.50555)"><g><path d="M 5.40625 -40.265625 L 23 -40.265625 C 27.300781 -40.265625 31.117188 -39.425781 34.453125 -37.75 C 37.785156 -36.082031 40.375 -33.722656 42.21875 -30.671875 C 44.0625 -27.628906 44.984375 -24.113281 44.984375 -20.125 C 44.984375 -16.144531 44.0625 -12.628906 42.21875 -9.578125 C 40.375 -6.523438 37.785156 -4.164062 34.453125 -2.5 C 31.117188 -0.832031 27.300781 0 23 0 L 5.40625 0 Z M 22.65625 -6.328125 C 25.613281 -6.328125 28.210938 -6.890625 30.453125 -8.015625 C 32.691406 -9.148438 34.414062 -10.757812 35.625 -12.84375 C 36.832031 -14.9375 37.4375 -17.363281 37.4375 -20.125 C 37.4375 -22.882812 36.832031 -25.3125 35.625 -27.40625 C 34.414062 -29.5 32.691406 -31.109375 30.453125 -32.234375 C 28.210938 -33.367188 25.613281 -33.9375 22.65625 -33.9375 L 12.890625 -33.9375 L 12.890625 -6.328125 Z M 22.65625 -6.328125 "/></g></g></g><g fill="#ffffff" fill-opacity="1"><g transform="translate(97.37456, 56.50555)"><g><path d="M 31.515625 -9.3125 L 11.390625 -9.3125 L 7.421875 0 L -0.28125 0 L 17.828125 -40.265625 L 25.1875 -40.265625 L 43.359375 0 L 35.546875 0 Z M 29.046875 -15.1875 L 21.453125 -32.78125 L 13.921875 -15.1875 Z M 29.046875 -15.1875 "/></g></g></g></g></g></g><g clip-path="url(#959912dbd3)"><g clip-path="url(#f085743c06)"><path stroke-linecap="butt" transform="matrix(0, 0.74707, -0.74707, 0, 100.845366, 25.100906)" fill="none" stroke-linejoin="miter" d="M 31.676696 15.834844 L 31.676696 15.855759 C 31.676696 24.598243 24.5865 31.688439 15.844016 31.688439 C 7.101532 31.688439 0.0113358 24.598243 0.0113358 15.855759 L 0.0113358 15.834844 C 0.0113358 7.087131 7.101532 0.00216361 15.844016 0.00216361 C 24.5865 0.00216361 31.676696 7.087131 31.676696 15.834844 Z M 31.676696 15.834844 " stroke="#10b981" stroke-width="14" stroke-opacity="1" stroke-miterlimit="4"/></g></g><g clip-path="url(#1ab87e16cb)"><path stroke-linecap="butt" transform="matrix(0, 0.74707, -0.74707, 0, 37.928709, 48.777274)" fill="none" stroke-linejoin="miter" d="M 0.021009 -0.00130981 L 44.742576 -0.00130981 L 44.742576 9.687579 L 0.021009 9.687579 Z M 0.021009 -0.00130981 " stroke="#10b981" stroke-width="16" stroke-opacity="1" stroke-miterlimit="4"/></g><g clip-path="url(#60a7314efe)"><g clip-path="url(#7f36e195d5)"><path stroke-linecap="butt" transform="matrix(0, 0.74707, -0.74707, 0, 26.089892, 102.311078)" fill="none" stroke-linejoin="miter" d="M 32.080336 16.036666 L 32.080336 16.057581 C 32.080336 24.915098 24.901251 32.094183 16.048963 32.094183 C 7.191447 32.094183 0.0123615 24.915098 0.0123615 16.057581 L 0.0123615 16.036666 C 0.0123615 7.17915 7.191447 0.0000644152 16.048963 0.0000644152 C 24.901251 0.0000644152 32.080336 7.17915 32.080336 16.036666 Z M 32.080336 16.036666 " stroke="#10b981" stroke-width="14" stroke-opacity="1" stroke-miterlimit="4"/></g></g></svg>