<svg xmlns="http://www.w3.org/2000/svg" xmlns:xlink="http://www.w3.org/1999/xlink" width="640" zoomAndPan="magnify" viewBox="0 0 480 479.999983" height="640" preserveAspectRatio="xMidYMid meet" version="1.0"><defs><clipPath id="42a791ff33"><path d="M 47.394531 103.996094 L 74.523438 103.996094 L 74.523438 396.265625 L 47.394531 396.265625 Z M 47.394531 103.996094 " clip-rule="nonzero"/></clipPath><clipPath id="5443a26a68"><path d="M 0.394531 0.996094 L 27.523438 0.996094 L 27.523438 293.265625 L 0.394531 293.265625 Z M 0.394531 0.996094 " clip-rule="nonzero"/></clipPath><clipPath id="2eaf7dba97"><rect x="0" width="28" y="0" height="294"/></clipPath><clipPath id="87d0949a32"><path d="M 47.523438 104.148438 L 74.523438 104.148438 L 74.523438 396.308594 L 47.523438 396.308594 Z M 47.523438 104.148438 " clip-rule="nonzero"/></clipPath><clipPath id="89378a3ff9"><path d="M 326.339844 167.347656 L 356.722656 167.347656 L 356.722656 285.761719 L 326.339844 285.761719 Z M 326.339844 167.347656 " clip-rule="nonzero"/></clipPath><clipPath id="118bc96471"><path d="M 0.339844 0.347656 L 30.722656 0.347656 L 30.722656 118.761719 L 0.339844 118.761719 Z M 0.339844 0.347656 " clip-rule="nonzero"/></clipPath><clipPath id="5c033e6c83"><rect x="0" width="31" y="0" height="119"/></clipPath><clipPath id="1b702ac52e"><path d="M 326.347656 167.398438 L 356.722656 167.398438 L 356.722656 285.785156 L 326.347656 285.785156 Z M 326.347656 167.398438 " clip-rule="nonzero"/></clipPath><clipPath id="b3c90636b1"><path d="M 400.804688 74.472656 L 432.8125 74.472656 L 432.8125 369.613281 L 400.804688 369.613281 Z M 400.804688 74.472656 " clip-rule="nonzero"/></clipPath><clipPath id="a2052c0a53"><path d="M 0.804688 0.472656 L 32.8125 0.472656 L 32.8125 295.613281 L 0.804688 295.613281 Z M 0.804688 0.472656 " clip-rule="nonzero"/></clipPath><clipPath id="7481bc5547"><rect x="0" width="33" y="0" height="296"/></clipPath><clipPath id="242c264e86"><path d="M 400.808594 74.59375 L 432.8125 74.59375 L 432.8125 369.6875 L 400.808594 369.6875 Z M 400.808594 74.59375 " clip-rule="nonzero"/></clipPath><clipPath id="6d6b53ee09"><path d="M 123.101562 184.832031 L 150.230469 184.832031 L 150.230469 310.0625 L 123.101562 310.0625 Z M 123.101562 184.832031 " clip-rule="nonzero"/></clipPath><clipPath id="803b8d401b"><path d="M 0.101562 0.832031 L 27.230469 0.832031 L 27.230469 126.0625 L 0.101562 126.0625 Z M 0.101562 0.832031 " clip-rule="nonzero"/></clipPath><clipPath id="cb97cd23e0"><rect x="0" width="28" y="0" height="127"/></clipPath><clipPath id="afe3e0b181"><path d="M 123.230469 184.898438 L 150.230469 184.898438 L 150.230469 310.078125 L 123.230469 310.078125 Z M 123.230469 184.898438 " clip-rule="nonzero"/></clipPath><clipPath id="3dfb3d0d16"><path d="M 297 96.164062 L 385.867188 96.164062 L 385.867188 184.777344 L 297 184.777344 Z M 297 96.164062 " clip-rule="nonzero"/></clipPath><clipPath id="c0e0f60ffa"><path d="M 341.558594 184.777344 L 341.5 184.777344 C 317.03125 184.777344 297.191406 164.941406 297.191406 140.46875 C 297.191406 116 317.03125 96.164062 341.5 96.164062 L 341.558594 96.164062 C 366.03125 96.164062 385.867188 116 385.867188 140.46875 C 385.867188 164.941406 366.03125 184.777344 341.558594 184.777344 Z M 341.558594 184.777344 " clip-rule="nonzero"/></clipPath><clipPath id="4d60ce628f"><path d="M 0.121094 0.164062 L 88.867188 0.164062 L 88.867188 88.777344 L 0.121094 88.777344 Z M 0.121094 0.164062 " clip-rule="nonzero"/></clipPath><clipPath id="107f494a34"><path d="M 44.558594 88.777344 L 44.5 88.777344 C 20.03125 88.777344 0.191406 68.941406 0.191406 44.46875 C 0.191406 20 20.03125 0.164062 44.5 0.164062 L 44.558594 0.164062 C 69.03125 0.164062 88.867188 20 88.867188 44.46875 C 88.867188 68.941406 69.03125 88.777344 44.558594 88.777344 Z M 44.558594 88.777344 " clip-rule="nonzero"/></clipPath><clipPath id="7b4fe11f03"><rect x="0" width="89" y="0" height="89"/></clipPath><clipPath id="5c0b7e7772"><path d="M 297.367188 96.195312 L 385.867188 96.195312 L 385.867188 184.664062 L 297.367188 184.664062 Z M 297.367188 96.195312 " clip-rule="nonzero"/></clipPath><clipPath id="16abedd71c"><path d="M 341.5625 184.796875 L 341.503906 184.796875 C 317.035156 184.796875 297.203125 164.960938 297.203125 140.496094 C 297.203125 116.027344 317.035156 96.195312 341.503906 96.195312 L 341.5625 96.195312 C 366.03125 96.195312 385.867188 116.027344 385.867188 140.496094 C 385.867188 164.960938 366.03125 184.796875 341.5625 184.796875 Z M 341.5625 184.796875 " clip-rule="nonzero"/></clipPath><clipPath id="c5633dfe32"><path d="M 372.183594 3.78125 L 461.140625 3.78125 L 461.140625 92.394531 L 372.183594 92.394531 Z M 372.183594 3.78125 " clip-rule="nonzero"/></clipPath><clipPath id="3c5798dc7d"><path d="M 416.835938 92.394531 L 416.773438 92.394531 C 392.304688 92.394531 372.46875 72.558594 372.46875 48.089844 C 372.46875 23.621094 392.304688 3.78125 416.773438 3.78125 L 416.835938 3.78125 C 441.304688 3.78125 461.140625 23.621094 461.140625 48.089844 C 461.140625 72.558594 441.304688 92.394531 416.835938 92.394531 Z M 416.835938 92.394531 " clip-rule="nonzero"/></clipPath><clipPath id="f321a86bb9"><path d="M 0.238281 0.78125 L 89.140625 0.78125 L 89.140625 89.394531 L 0.238281 89.394531 Z M 0.238281 0.78125 " clip-rule="nonzero"/></clipPath><clipPath id="69c59b9b7e"><path d="M 44.835938 89.394531 L 44.773438 89.394531 C 20.304688 89.394531 0.46875 69.558594 0.46875 45.089844 C 0.46875 20.621094 20.304688 0.78125 44.773438 0.78125 L 44.835938 0.78125 C 69.304688 0.78125 89.140625 20.621094 89.140625 45.089844 C 89.140625 69.558594 69.304688 89.394531 44.835938 89.394531 Z M 44.835938 89.394531 " clip-rule="nonzero"/></clipPath><clipPath id="36b0eabfae"><rect x="0" width="90" y="0" height="90"/></clipPath><clipPath id="594990dfdd"><path d="M 372.640625 3.8125 L 461.140625 3.8125 L 461.140625 92.28125 L 372.640625 92.28125 Z M 372.640625 3.8125 " clip-rule="nonzero"/></clipPath><clipPath id="783449d854"><path d="M 416.839844 92.417969 L 416.78125 92.417969 C 392.3125 92.417969 372.476562 72.582031 372.476562 48.113281 C 372.476562 23.648438 392.3125 3.8125 416.78125 3.8125 L 416.839844 3.8125 C 441.308594 3.8125 461.140625 23.648438 461.140625 48.113281 C 461.140625 72.582031 441.308594 92.417969 416.839844 92.417969 Z M 416.839844 92.417969 " clip-rule="nonzero"/></clipPath><clipPath id="3b1f4498d1"><path d="M 93.070312 292 L 179.988281 292 L 179.988281 378.578125 L 93.070312 378.578125 Z M 93.070312 292 " clip-rule="nonzero"/></clipPath><clipPath id="5a14e4499c"><path d="M 136.699219 378.578125 L 136.640625 378.578125 C 112.730469 378.578125 93.351562 359.199219 93.351562 335.289062 C 93.351562 311.378906 112.730469 292 136.640625 292 L 136.699219 292 C 160.609375 292 179.988281 311.378906 179.988281 335.289062 C 179.988281 359.199219 160.609375 378.578125 136.699219 378.578125 Z M 136.699219 378.578125 " clip-rule="nonzero"/></clipPath><clipPath id="de1ccc9e0c"><path d="M 0.121094 0 L 86.988281 0 L 86.988281 86.578125 L 0.121094 86.578125 Z M 0.121094 0 " clip-rule="nonzero"/></clipPath><clipPath id="a85e62414f"><path d="M 43.699219 86.578125 L 43.640625 86.578125 C 19.730469 86.578125 0.351562 67.199219 0.351562 43.289062 C 0.351562 19.378906 19.730469 0 43.640625 0 L 43.699219 0 C 67.609375 0 86.988281 19.378906 86.988281 43.289062 C 86.988281 67.199219 67.609375 86.578125 43.699219 86.578125 Z M 43.699219 86.578125 " clip-rule="nonzero"/></clipPath><clipPath id="c23bba5847"><rect x="0" width="87" y="0" height="87"/></clipPath><clipPath id="4e4686ce13"><path d="M 93 292.027344 L 179.988281 292.027344 L 179.988281 379 L 93 379 Z M 93 292.027344 " clip-rule="nonzero"/></clipPath><clipPath id="25dda39e6d"><path d="M 136.699219 378.605469 L 136.640625 378.605469 C 112.734375 378.605469 93.351562 359.226562 93.351562 335.316406 C 93.351562 311.410156 112.734375 292.027344 136.640625 292.027344 L 136.699219 292.027344 C 160.609375 292.027344 179.988281 311.410156 179.988281 335.316406 C 179.988281 359.226562 160.609375 378.605469 136.699219 378.605469 Z M 136.699219 378.605469 " clip-rule="nonzero"/></clipPath><clipPath id="2c52ed71ed"><path d="M 16 385.371094 L 105.875 385.371094 L 105.875 475.140625 L 16 475.140625 Z M 16 385.371094 " clip-rule="nonzero"/></clipPath><clipPath id="1d89490ee6"><path d="M 60.992188 475.140625 L 60.929688 475.140625 C 36.144531 475.140625 16.046875 455.042969 16.046875 430.257812 C 16.046875 405.46875 36.144531 385.371094 60.929688 385.371094 L 60.992188 385.371094 C 85.78125 385.371094 105.875 405.46875 105.875 430.257812 C 105.875 455.042969 85.78125 475.140625 60.992188 475.140625 Z M 60.992188 475.140625 " clip-rule="nonzero"/></clipPath><clipPath id="2b6b21829f"><path d="M 0 0.371094 L 89.875 0.371094 L 89.875 90.140625 L 0 90.140625 Z M 0 0.371094 " clip-rule="nonzero"/></clipPath><clipPath id="4f7608018f"><path d="M 44.992188 90.140625 L 44.929688 90.140625 C 20.144531 90.140625 0.046875 70.042969 0.046875 45.257812 C 0.046875 20.46875 20.144531 0.371094 44.929688 0.371094 L 44.992188 0.371094 C 69.78125 0.371094 89.875 20.46875 89.875 45.257812 C 89.875 70.042969 69.78125 90.140625 44.992188 90.140625 Z M 44.992188 90.140625 " clip-rule="nonzero"/></clipPath><clipPath id="5e082422d2"><rect x="0" width="90" y="0" height="91"/></clipPath><clipPath id="3bca839a28"><path d="M 16 385.402344 L 105.875 385.402344 L 105.875 475.371094 L 16 475.371094 Z M 16 385.402344 " clip-rule="nonzero"/></clipPath><clipPath id="d217a7454d"><path d="M 60.992188 475.167969 L 60.933594 475.167969 C 36.144531 475.167969 16.050781 455.070312 16.050781 430.285156 C 16.050781 405.496094 36.144531 385.402344 60.933594 385.402344 L 60.992188 385.402344 C 85.78125 385.402344 105.875 405.496094 105.875 430.285156 C 105.875 455.070312 85.78125 475.167969 60.992188 475.167969 Z M 60.992188 475.167969 " clip-rule="nonzero"/></clipPath><clipPath id="5a27fa2bce"><path d="M 40 26 L 442 26 L 442 454 L 40 454 Z M 40 26 " clip-rule="nonzero"/></clipPath><clipPath id="0b0c03db5e"><path d="M 98.582031 3.78125 L 463.945312 401.746094 L 382.832031 476.21875 L 17.46875 78.253906 Z M 98.582031 3.78125 " clip-rule="nonzero"/></clipPath><clipPath id="c0410553be"><path d="M 423.214844 438.792969 C 400.816406 459.355469 365.988281 457.867188 345.421875 435.46875 L 54.703125 118.808594 C 34.136719 96.410156 35.625 61.582031 58.023438 41.015625 C 80.421875 20.453125 115.25 21.941406 135.816406 44.339844 L 426.535156 361 C 447.101562 383.398438 445.613281 418.226562 423.214844 438.792969 Z M 423.214844 438.792969 " clip-rule="nonzero"/></clipPath><clipPath id="7673db8cd3"><path d="M 0 0 L 402 0 L 402 428 L 0 428 Z M 0 0 " clip-rule="nonzero"/></clipPath><clipPath id="0e0ef4e226"><path d="M 58.582031 -22.21875 L 423.945312 375.746094 L 342.832031 450.21875 L -22.53125 52.253906 Z M 58.582031 -22.21875 " clip-rule="nonzero"/></clipPath><clipPath id="948c3e7774"><path d="M 383.214844 412.792969 C 360.816406 433.355469 325.988281 431.867188 305.421875 409.46875 L 14.703125 92.808594 C -5.863281 70.410156 -4.375 35.582031 18.023438 15.015625 C 40.421875 -5.546875 75.25 -4.058594 95.816406 18.339844 L 386.535156 335 C 407.101562 357.398438 405.613281 392.226562 383.214844 412.792969 Z M 383.214844 412.792969 " clip-rule="nonzero"/></clipPath><clipPath id="940c20e930"><rect x="0" width="402" y="0" height="428"/></clipPath><clipPath id="24f9b2131c"><path d="M 40 26 L 442 26 L 442 454 L 40 454 Z M 40 26 " clip-rule="nonzero"/></clipPath><clipPath id="9043407805"><path d="M 98.582031 3.78125 L 463.777344 401.566406 L 382.5625 476.125 L 17.367188 78.34375 Z M 98.582031 3.78125 " clip-rule="nonzero"/></clipPath><clipPath id="81079da79a"><path d="M 98.675781 3.886719 L 463.925781 401.722656 L 382.734375 476.265625 L 17.484375 78.425781 Z M 98.675781 3.886719 " clip-rule="nonzero"/></clipPath><clipPath id="6f04384246"><path d="M 423.292969 438.875 C 400.898438 459.4375 366.070312 457.953125 345.507812 435.554688 L 54.796875 118.90625 C 34.234375 96.507812 35.722656 61.683594 58.121094 41.117188 C 80.519531 20.554688 115.34375 22.042969 135.910156 44.441406 L 426.617188 361.089844 C 447.179688 383.484375 445.691406 418.3125 423.292969 438.875 Z M 423.292969 438.875 " clip-rule="nonzero"/></clipPath></defs><g clip-path="url(#42a791ff33)"><g transform="matrix(1, 0, 0, 1, 47, 103)"><g clip-path="url(#2eaf7dba97)"><g clip-path="url(#5443a26a68)"><path fill="#10b981" d="M 27.523438 0.996094 L 27.523438 293.253906 L 0.394531 293.253906 L 0.394531 0.996094 Z M 27.523438 0.996094 " fill-opacity="1" fill-rule="nonzero"/></g></g></g></g><g clip-path="url(#87d0949a32)"><path stroke-linecap="butt" transform="matrix(0, 0.75, -0.75, 0, 74.521863, 103.995563)" fill="none" stroke-linejoin="miter" d="M 0.203832 -0.00209966 L 389.750737 -0.00209966 L 389.750737 36.154153 L 0.203832 36.154153 Z M 0.203832 -0.00209966 " stroke="#10b981" stroke-width="16" stroke-opacity="1" stroke-miterlimit="4"/></g><g clip-path="url(#89378a3ff9)"><g transform="matrix(1, 0, 0, 1, 326, 167)"><g clip-path="url(#5c033e6c83)"><g clip-path="url(#118bc96471)"><path fill="#10b981" d="M 30.722656 0.347656 L 30.722656 118.789062 L 0.339844 118.789062 L 0.339844 0.347656 Z M 30.722656 0.347656 " fill-opacity="1" fill-rule="nonzero"/></g></g></g></g><g clip-path="url(#1b702ac52e)"><path stroke-linecap="butt" transform="matrix(0, 0.75, -0.75, 0, 356.723712, 167.348133)" fill="none" stroke-linejoin="miter" d="M 0.0670731 0.00140794 L 157.916054 0.00140794 L 157.916054 40.501414 L 0.0670731 40.501414 Z M 0.0670731 0.00140794 " stroke="#10b981" stroke-width="16" stroke-opacity="1" stroke-miterlimit="4"/></g><g clip-path="url(#b3c90636b1)"><g transform="matrix(1, 0, 0, 1, 400, 74)"><g clip-path="url(#7481bc5547)"><g clip-path="url(#a2052c0a53)"><path fill="#10b981" d="M 32.8125 0.472656 L 32.8125 295.558594 L 0.804688 295.558594 L 0.804688 0.472656 Z M 32.8125 0.472656 " fill-opacity="1" fill-rule="nonzero"/></g></g></g></g><g clip-path="url(#242c264e86)"><path stroke-linecap="butt" transform="matrix(0, 0.75, -0.75, 0, 432.813287, 74.473199)" fill="none" stroke-linejoin="miter" d="M 0.160735 0.00104952 L 393.619098 0.00104952 L 393.619098 42.672928 L 0.160735 42.672928 Z M 0.160735 0.00104952 " stroke="#10b981" stroke-width="16" stroke-opacity="1" stroke-miterlimit="4"/></g><g clip-path="url(#6d6b53ee09)"><g transform="matrix(1, 0, 0, 1, 123, 184)"><g clip-path="url(#cb97cd23e0)"><g clip-path="url(#803b8d401b)"><path fill="#10b981" d="M 27.230469 0.832031 L 27.230469 126.085938 L 0.101562 126.085938 L 0.101562 0.832031 Z M 27.230469 0.832031 " fill-opacity="1" fill-rule="nonzero"/></g></g></g></g><g clip-path="url(#afe3e0b181)"><path stroke-linecap="butt" transform="matrix(0, 0.75, -0.75, 0, 150.229187, 184.833209)" fill="none" stroke-linejoin="miter" d="M 0.0869714 -0.00170857 L 166.993234 -0.00170857 L 166.993234 36.154544 L 0.0869714 36.154544 Z M 0.0869714 -0.00170857 " stroke="#10b981" stroke-width="16" stroke-opacity="1" stroke-miterlimit="4"/></g><g clip-path="url(#3dfb3d0d16)"><g clip-path="url(#c0e0f60ffa)"><g transform="matrix(1, 0, 0, 1, 297, 96)"><g clip-path="url(#7b4fe11f03)"><g clip-path="url(#4d60ce628f)"><g clip-path="url(#107f494a34)"><path fill="#10b981" d="M 88.867188 0.164062 L 88.867188 88.777344 L 0.253906 88.777344 L 0.253906 0.164062 Z M 88.867188 0.164062 " fill-opacity="1" fill-rule="nonzero"/></g></g></g></g></g></g><g clip-path="url(#5c0b7e7772)"><g clip-path="url(#16abedd71c)"><path stroke-linecap="butt" transform="matrix(0, 0.75, -0.75, 0, 385.866336, 96.16349)" fill="none" stroke-linejoin="miter" d="M 118.177856 59.071786 L 118.177856 59.149911 C 118.177856 91.774914 91.729937 118.217624 59.110143 118.217624 C 26.48514 118.217624 0.0424298 91.774914 0.0424298 59.149911 L 0.0424298 59.071786 C 0.0424298 26.446784 26.48514 -0.00113486 59.110143 -0.00113486 C 91.729937 -0.00113486 118.177856 26.446784 118.177856 59.071786 Z M 118.177856 59.071786 " stroke="#10b981" stroke-width="24" stroke-opacity="1" stroke-miterlimit="4"/></g></g><g clip-path="url(#c5633dfe32)"><g clip-path="url(#3c5798dc7d)"><g transform="matrix(1, 0, 0, 1, 372, 3)"><g clip-path="url(#36b0eabfae)"><g clip-path="url(#f321a86bb9)"><g clip-path="url(#69c59b9b7e)"><path fill="#10b981" d="M 89.140625 0.78125 L 89.140625 89.394531 L 0.527344 89.394531 L 0.527344 0.78125 Z M 89.140625 0.78125 " fill-opacity="1" fill-rule="nonzero"/></g></g></g></g></g></g><g clip-path="url(#594990dfdd)"><g clip-path="url(#783449d854)"><path stroke-linecap="butt" transform="matrix(0, 0.75, -0.75, 0, 461.141397, 3.782485)" fill="none" stroke-linejoin="miter" d="M 118.180654 59.068742 L 118.180654 59.146867 C 118.180654 91.77187 91.732735 118.219788 59.107733 118.219788 C 26.487939 118.219788 0.0400198 91.77187 0.0400198 59.146867 L 0.0400198 59.068742 C 0.0400198 26.44374 26.487939 0.00102927 59.107733 0.00102927 C 91.732735 0.00102927 118.180654 26.44374 118.180654 59.068742 Z M 118.180654 59.068742 " stroke="#10b981" stroke-width="24" stroke-opacity="1" stroke-miterlimit="4"/></g></g><g clip-path="url(#3b1f4498d1)"><g clip-path="url(#5a14e4499c)"><g transform="matrix(1, 0, 0, 1, 93, 292)"><g clip-path="url(#c23bba5847)"><g clip-path="url(#de1ccc9e0c)"><g clip-path="url(#a85e62414f)"><path fill="#10b981" d="M 86.988281 0 L 86.988281 86.578125 L 0.410156 86.578125 L 0.410156 0 Z M 86.988281 0 " fill-opacity="1" fill-rule="nonzero"/></g></g></g></g></g></g><g clip-path="url(#4e4686ce13)"><g clip-path="url(#25dda39e6d)"><path stroke-linecap="butt" transform="matrix(0, 0.75, -0.75, 0, 179.989653, 291.998795)" fill="none" stroke-linejoin="miter" d="M 115.475574 57.720583 L 115.475574 57.798708 C 115.475574 89.673711 89.63703 115.517463 57.756819 115.517463 C 25.881817 115.517463 0.0380649 89.673711 0.0380649 57.798708 L 0.0380649 57.720583 C 0.0380649 25.840373 25.881817 0.00182903 57.756819 0.00182903 C 89.63703 0.00182903 115.475574 25.840373 115.475574 57.720583 Z M 115.475574 57.720583 " stroke="#10b981" stroke-width="24" stroke-opacity="1" stroke-miterlimit="4"/></g></g><g clip-path="url(#2c52ed71ed)"><g clip-path="url(#1d89490ee6)"><g transform="matrix(1, 0, 0, 1, 16, 385)"><g clip-path="url(#5e082422d2)"><g clip-path="url(#2b6b21829f)"><g clip-path="url(#4f7608018f)"><path fill="#10b981" d="M 89.875 0.371094 L 89.875 90.140625 L 0.109375 90.140625 L 0.109375 0.371094 Z M 89.875 0.371094 " fill-opacity="1" fill-rule="nonzero"/></g></g></g></g></g></g><g clip-path="url(#3bca839a28)"><g clip-path="url(#d217a7454d)"><path stroke-linecap="butt" transform="matrix(0, 0.75, -0.75, 0, 105.875465, 385.372295)" fill="none" stroke-linejoin="miter" d="M 119.727574 59.844375 L 119.727574 59.9225 C 119.727574 92.974586 92.930697 119.766254 59.883819 119.766254 C 26.831734 119.766254 0.0400649 92.974586 0.0400649 59.9225 L 0.0400649 59.844375 C 0.0400649 26.792289 26.831734 0.000620185 59.883819 0.000620185 C 92.930697 0.000620185 119.727574 26.792289 119.727574 59.844375 Z M 119.727574 59.844375 " stroke="#10b981" stroke-width="24" stroke-opacity="1" stroke-miterlimit="4"/></g></g><g clip-path="url(#5a27fa2bce)"><g clip-path="url(#0b0c03db5e)"><g clip-path="url(#c0410553be)"><g transform="matrix(1, 0, 0, 1, 40, 26)"><g clip-path="url(#940c20e930)"><g clip-path="url(#7673db8cd3)"><g clip-path="url(#0e0ef4e226)"><g clip-path="url(#948c3e7774)"><path fill="#10b981" d="M 58.582031 -22.21875 L 423.65625 375.429688 L 342.542969 449.898438 L -22.53125 52.253906 Z M 58.582031 -22.21875 " fill-opacity="1" fill-rule="nonzero"/></g></g></g></g></g></g></g></g><g clip-path="url(#24f9b2131c)"><g clip-path="url(#9043407805)"><g clip-path="url(#81079da79a)"><g clip-path="url(#6f04384246)"><path stroke-linecap="butt" transform="matrix(0.507218, 0.552476, -0.552476, 0.507218, 98.580954, 3.782704)" fill="none" stroke-linejoin="miter" d="M 720.138484 73.406919 C 720.140901 113.944016 687.277695 146.812977 646.736762 146.811872 L 73.590873 146.81323 C 33.04994 146.812125 0.188337 113.948605 0.185606 73.40415 C 0.186711 32.863217 33.050231 0.00161393 73.594687 -0.00111757 L 646.737053 0.00136072 C 687.27415 -0.00105649 720.139589 32.865986 720.138484 73.406919 Z M 720.138484 73.406919 " stroke="#10b981" stroke-width="50" stroke-opacity="1" stroke-miterlimit="4"/></g></g></g></g></svg>